# xmcd
#
# Track frame offsets:
#	150
#	4360
#	23855
#	45221
#	67828
#	89798
#	112334
#	131633
#	148654
#	172785
#	197435
#	220029
#	244406
#	248122
#
# Disc length: 3535 seconds
#
# Revision: 0
# Processed by: cddbd v1.4PL0 Copyright (c) Steve Scherf et al.
# Submitted via: dBpowerAMP V4.0
#
DISCID=c30dcd0e
DTITLE=Sounds Of Blackness - Reconciliation
DYEAR=1999
DGENRE=
TTITLE0=DJ Intros
TTITLE1=Try
TTITLE2=You Are The One
TTITLE3=Thank You
TTITLE4=Reconciliation
TTITLE5=Twenty four and Back Again
TTITLE6=For Old Times Sake
TTITLE7=Tell Me What You Thinkin' 'Bout
TTITLE8=Rainbow
TTITLE9=Love Will Change Things
TTITLE10=Don't Be Afraid To Dream
TTITLE11=Straight Ahead
TTITLE12=Reconciliation Blues
TTITLE13=Sound Of Blackness - Take The A Train
EXTD=
EXTT0=
EXTT1=
EXTT2=
EXTT3=
EXTT4=
EXTT5=
EXTT6=
EXTT7=
EXTT8=
EXTT9=
EXTT10=
EXTT11=
EXTT12=
EXTT13=
PLAYORDER=
